<svg xmlns="http://www.w3.org/2000/svg" viewBox="0 0 700 350" width="100%" height="100%">
  <defs>
    <style>
      .bg { fill: #fdfdfb; }
      .line { stroke: #1c1d1f; stroke-width: 2.5; stroke-linecap: round; stroke-linejoin: round; fill: none; }
      .line-dashed { stroke: #7c221e; stroke-width: 2; stroke-dasharray: 6 4; fill: none; }
      .accent-line { stroke: #7c221e; stroke-width: 3; stroke-linecap: round; stroke-linejoin: round; fill: none; }
      .text-title { font-family: 'Lora', Georgia, serif; font-size: 16px; font-weight: bold; fill: #1c1d1f; }
      .text-body { font-family: 'Outfit', sans-serif; font-size: 12px; fill: #5c5e62; }
      .text-accent { font-family: 'Outfit', sans-serif; font-size: 12px; font-weight: 600; fill: #7c221e; }
      .arrow { fill: #7c221e; }
      .ground { stroke: #e3e2de; stroke-width: 2; }
      .force-arrow { stroke: #7c221e; stroke-width: 2; fill: none; marker-end: url(#arrow-head); }
    </style>
    <marker id="arrow-head" viewBox="0 0 10 10" refX="5" refY="5" markerWidth="6" markerHeight="6" orient="auto-start-reverse">
      <path d="M 0 0 L 10 5 L 0 10 z" fill="#7c221e" />
    </marker>
  </defs>

  <rect width="100%" height="100%" class="bg" />

  <!-- Ground -->
  <line x1="50" y1="300" x2="650" y2="300" class="line ground" />

  <!-- LEFT DIAGRAM: VERTICAL TOWER -->
  <g transform="translate(0, 0)">
    <!-- Vertical Wall outline -->
    <rect x="130" y="80" width="40" height="220" class="line" fill="#e3e2de" fill-opacity="0.2" />
    
    <!-- Buckling / Instability arrows -->
    <path d="M 130 180 Q 100 180 110 200" class="line-dashed" />
    <path d="M 170 180 Q 200 180 190 200" class="line-dashed" />
    
    <!-- Gravity force vectors -->
    <line x1="150" y1="40" x2="150" y2="70" class="force-arrow" />
    <text x="150" y="32" class="text-accent" text-anchor="middle">Gravité</text>
    
    <line x1="110" y1="200" x2="95" y2="215" class="force-arrow" />
    <line x1="190" y1="200" x2="205" y2="215" class="force-arrow" />
    
    <!-- Labels -->
    <text x="150" y="140" class="text-accent" text-anchor="middle">Effort concentré</text>
    <text x="150" y="160" class="text-accent" text-anchor="middle">sur la base</text>
    
    <text x="150" y="320" class="text-title" text-anchor="middle">Mur Vertical (Instable)</text>
    <text x="150" y="338" class="text-body" text-anchor="middle">Tendance naturelle au flambement</text>
  </g>

  <!-- RIGHT DIAGRAM: PYRAMID -->
  <g transform="translate(350, 0)">
    <!-- Pyramid outline -->
    <polygon points="150,80 50,300 250,300" class="line" fill="#7c221e" fill-opacity="0.05" />
    
    <!-- Gravity force vectors distributed along slope -->
    <line x1="150" y1="40" x2="150" y2="70" class="force-arrow" />
    <text x="150" y="32" class="text-accent" text-anchor="middle">Gravité</text>

    <!-- Force distribution lines -->
    <path d="M 150 90 L 100 200" class="line-dashed" />
    <path d="M 150 90 L 200 200" class="line-dashed" />
    
    <line x1="100" y1="200" x2="80" y2="244" class="force-arrow" />
    <line x1="200" y1="200" x2="220" y2="244" class="force-arrow" />

    <!-- Wide base support arrows -->
    <line x1="50" y1="310" x2="250" y2="310" class="accent-line" />
    <line x1="50" y1="310" x2="40" y2="310" class="force-arrow" />
    <line x1="250" y1="310" x2="260" y2="310" class="force-arrow" />
    
    <!-- Labels -->
    <text x="150" y="150" class="text-accent" text-anchor="middle">Distribution</text>
    <text x="150" y="170" class="text-accent" text-anchor="middle">des charges</text>
    
    <text x="150" y="320" class="text-title" text-anchor="middle">Pyramide (Stable)</text>
    <text x="150" y="338" class="text-body" text-anchor="middle">Répartition triangulaire idéale des charges</text>
  </g>
</svg>
